Coordinates
version=1
nRows=17
nColumns=63
inDegrees=yes

Units are S.I. units (second, meters, Newtons, ...)
If the header above contains a line with 'inDegrees', this indicates whether rotational values are in degrees (yes) or radians (no).

endheader
time	pelvis_tilt	pelvis_list	pelvis_rotation	pelvis_tx	pelvis_ty	pelvis_tz	hip_flexion_r	hip_adduction_r	hip_rotation_r	knee_angle_r	knee_angle_r_beta	ankle_angle_r	subtalar_angle_r	mtp_angle_r	hip_flexion_l	hip_adduction_l	hip_rotation_l	knee_angle_l	knee_angle_l_beta	ankle_angle_l	subtalar_angle_l	mtp_angle_l	L5_S1_Flex_Ext	L5_S1_Lat_Bending	L5_S1_axial_rotation	L4_L5_Flex_Ext	L4_L5_Lat_Bending	L4_L5_axial_rotation	L3_L4_Flex_Ext	L3_L4_Lat_Bending	L3_L4_axial_rotation	L2_L3_Flex_Ext	L2_L3_Lat_Bending	L2_L3_axial_rotation	L1_L2_Flex_Ext	L1_L2_Lat_Bending	L1_L2_axial_rotation	L1_T12_Flex_Ext	L1_T12_Lat_Bending	L1_T12_axial_rotation	Abs_r3	Abs_r2	Abs_r1	Abs_t1	Abs_t2	neck_flexion	neck_bending	neck_rotation	arm_flex_r	arm_add_r	arm_rot_r	elbow_flex_r	pro_sup_r	wrist_flex_r	wrist_dev_r	arm_flex_l	arm_add_l	arm_rot_l	elbow_flex_l	pro_sup_l	wrist_flex_l	wrist_dev_l
3.169492	-5.386747	6.289822	82.480365	0.124245	1.033349	0.452926	-10.204007	-7.542972	7.853656	10.897965	0.190205	35.421073	11.795318	0.000000	-7.812479	2.547744	-16.728075	21.008090	0.366660	43.768078	14.289309	0.000000	0.090306	0.093864	-4.054884	0.167708	0.124839	-4.308315	0.148364	0.228220	-4.308315	0.103211	0.228220	-3.548024	0.083859	0.191407	-3.294593	0.051601	0.145395	-3.041163	0.645050	1.061804	-22.552050	0.000000	0.000000	23.116865	9.910633	13.568468	0.936344	-33.017442	-59.323540	103.602831	53.561861	-7.423043	23.341571	73.652396	-34.584129	50.584674	82.593966	65.463482	4.885541	-3.627863
3.186441	-5.612370	6.448048	82.714558	0.123885	1.033147	0.448939	-10.680964	-7.733506	7.916276	10.926517	0.190704	35.631125	11.112828	0.000000	-8.036825	2.723883	-16.767926	21.329033	0.372262	44.116036	14.468293	0.000000	0.127616	0.143673	-4.084113	0.236996	0.191085	-4.339370	0.209660	0.349327	-4.339370	0.145852	0.349327	-3.573599	0.118504	0.292978	-3.318342	0.072920	0.222550	-3.063085	0.911548	1.625260	-22.714614	0.000000	0.000000	23.747479	8.830572	13.360845	-5.504352	-34.504482	-69.158652	103.237749	53.286576	-12.892342	24.683240	74.153160	-35.709579	52.289188	80.972649	63.925561	6.000161	-3.957005
3.203390	-5.793066	6.533652	83.068245	0.123265	1.032937	0.445098	-11.091099	-7.839823	7.988568	10.980911	0.191653	35.799291	10.277610	0.000000	-8.256808	2.849756	-16.726044	21.521299	0.375618	44.354214	14.632938	0.000000	0.165686	0.189437	-4.066343	0.307695	0.251951	-4.320490	0.272205	0.460597	-4.320490	0.189362	0.460597	-3.558050	0.153856	0.386300	-3.303904	0.094673	0.293438	-3.049758	1.183475	2.142950	-22.615782	0.000000	0.000000	24.332631	7.649616	12.548814	-12.019979	-36.512064	-79.251838	103.065869	53.988570	-19.199010	25.593066	74.511602	-36.492841	54.052947	79.250923	61.133935	7.318589	-4.014265
3.220339	-5.947829	6.567099	83.495547	0.122482	1.032747	0.441502	-11.424415	-7.892919	8.055508	11.090665	0.193569	35.947708	9.369910	0.000000	-8.494520	2.953414	-16.625208	21.561250	0.376315	44.483540	14.795305	0.000000	0.200488	0.223799	-3.996547	0.372326	0.297652	-4.246331	0.329382	0.544144	-4.246331	0.229138	0.544144	-3.496979	0.186173	0.456370	-3.247194	0.114559	0.346664	-2.997410	1.432065	2.531655	-22.227595	0.000000	0.000000	24.891675	6.352466	10.791341	-18.471576	-39.016103	-89.627371	103.126389	55.276127	-25.780469	26.285824	74.948596	-36.901796	56.067759	77.461864	57.045349	8.806926	-3.920805
3.237288	-6.046472	6.565072	83.958519	0.121483	1.032576	0.438178	-11.691836	-7.881002	8.095705	11.247186	0.196300	36.084946	8.477807	0.000000	-8.760600	3.020508	-16.444316	21.456055	0.374479	44.542065	14.907033	0.000000	0.230351	0.251475	-3.913621	0.427786	0.334461	-4.158223	0.378444	0.611436	-4.158223	0.263269	0.611436	-3.424419	0.213904	0.512807	-3.179817	0.131623	0.389534	-2.935216	1.645377	2.844732	-21.766387	0.000000	0.000000	25.426306	5.197992	8.533367	-23.542826	-41.939485	-99.211895	103.327996	56.842197	-31.301591	26.886401	75.268235	-37.198404	58.007138	75.833844	52.045311	10.328904	-3.696747
3.254237	-6.091299	6.533881	84.430712	0.120359	1.032428	0.435175	-11.879528	-7.823771	7.968148	11.467440	0.200145	36.244765	7.818892	0.000000	-9.055658	3.047456	-16.243909	21.207618	0.370143	44.554592	15.040568	0.000000	0.256467	0.271582	-3.845850	0.476284	0.361204	-4.086216	0.421349	0.660324	-4.086216	0.293116	0.660324	-3.365119	0.238155	0.553809	-3.124753	0.146545	0.420680	-2.884388	1.831916	3.072186	-21.389464	0.000000	0.000000	25.888418	4.311456	6.074639	-26.962957	-45.169244	-107.762458	103.440784	59.311269	-35.076341	26.901174	75.420130	-37.610279	59.775726	74.595181	46.797001	11.530774	-3.592230
3.271186	-6.088389	6.479009	84.898774	0.119178	1.032281	0.432527	-11.995924	-7.726556	7.726836	11.729351	0.204716	36.415232	7.340217	0.000000	-9.369015	3.040987	-16.003567	20.835275	0.363644	44.544428	15.179683	0.000000	0.278633	0.282732	-3.813668	0.517449	0.376033	-4.052022	0.457766	0.687434	-4.052022	0.318450	0.687434	-3.336959	0.258739	0.576547	-3.098605	0.159211	0.437952	-2.860251	1.990248	3.198320	-21.210475	0.000000	0.000000	26.274839	3.755433	3.636361	-28.475759	-48.570339	-114.993141	103.328780	62.806169	-36.974185	26.019120	75.330522	-38.291017	61.208412	73.932948	41.813824	12.269340	-3.570598
3.288136	-6.055483	6.398644	85.355020	0.118040	1.032105	0.430285	-12.033926	-7.605974	7.380740	12.026937	0.209910	36.598751	7.039977	0.000000	-9.684561	3.014568	-15.718832	20.350659	0.355186	44.520186	15.331887	0.000000	0.297132	0.281173	-3.829035	0.551804	0.373960	-4.068350	0.488158	0.683644	-4.068350	0.339592	0.683644	-3.350406	0.275917	0.573368	-3.111091	0.169781	0.435537	-2.871777	2.122385	3.180684	-21.295947	0.000000	0.000000	26.584909	3.630880	1.370592	-27.765594	-52.008535	-120.581903	102.912894	67.097504	-37.105251	24.205723	74.946744	-39.321997	62.163716	73.979198	37.527272	12.541380	-3.569080
3.305085	-6.006531	6.291590	85.808374	0.117017	1.031896	0.428504	-11.999595	-7.471093	6.933108	12.339575	0.215366	36.782692	6.905271	0.000000	-9.981306	2.975416	-15.374528	19.778012	0.345191	44.471511	15.490358	0.000000	0.311394	0.264106	-3.896571	0.578290	0.351261	-4.140107	0.511589	0.642147	-4.140107	0.355892	0.642147	-3.409500	0.289161	0.538565	-3.165964	0.177931	0.409100	-2.922428	2.224257	2.987620	-21.671560	0.000000	0.000000	26.829967	3.954840	-0.639377	-24.429158	-55.341300	-124.158798	102.233605	71.623773	-35.586732	21.670306	74.237813	-40.700415	62.547100	74.793540	34.081092	12.399474	-3.548240
3.322034	-5.961831	6.170417	86.242302	0.116210	1.031659	0.427309	-11.894073	-7.344988	6.381068	12.665463	0.221054	36.971363	6.953367	0.000000	-10.247351	2.946059	-14.937411	19.149595	0.334223	44.372555	15.581483	0.000000	0.319271	0.228675	-4.011483	0.592917	0.304138	-4.262200	0.524530	0.556001	-4.262200	0.364894	0.556001	-3.510047	0.296475	0.466314	-3.259330	0.182431	0.354218	-3.008612	2.280518	2.586819	-22.310663	0.000000	0.000000	27.019625	4.747437	-2.270197	-18.147891	-58.370859	-125.286372	101.469578	76.144314	-33.048661	18.871127	73.177837	-42.391761	62.261703	76.388946	31.444321	11.990999	-3.358986
3.338983	-5.895672	6.034991	86.666990	0.115634	1.031434	0.426728	-11.731236	-7.189552	5.762974	12.979323	0.226532	37.126520	7.122848	0.000000	-10.485461	2.883110	-14.515863	18.460650	0.322199	44.224489	15.746743	0.000000	0.318813	0.178819	-4.150233	0.592068	0.237829	-4.409622	0.523778	0.434781	-4.409622	0.364371	0.434781	-3.631454	0.296050	0.364648	-3.372064	0.182170	0.276991	-3.112674	2.277250	2.022837	-23.082349	0.000000	0.000000	27.126262	5.659412	-3.810560	-8.919533	-60.942073	-123.983287	100.785171	80.012100	-28.894365	16.340770	71.837052	-44.207194	61.407516	78.658313	29.777814	11.282332	-3.333053
3.355932	-5.820349	5.871529	87.072554	0.115377	1.031236	0.426823	-11.492086	-7.017065	5.075413	13.277692	0.231739	37.246603	7.429000	0.000000	-10.668300	2.807092	-13.972656	17.730296	0.309452	43.977348	15.770844	0.000000	0.311927	0.114144	-4.284846	0.579280	0.151812	-4.552649	0.512466	0.277530	-4.552649	0.356502	0.277530	-3.749240	0.289656	0.232762	-3.481437	0.178235	0.176809	-3.213635	2.228066	1.291220	-23.831029	0.000000	0.000000	27.169351	6.619735	-5.275704	2.829790	-62.985878	-120.102410	100.407049	82.989550	-24.171767	14.337516	70.261415	-45.923263	59.990071	81.456165	28.584381	10.541210	-3.119214
3.372881	-5.732813	5.650234	87.484321	0.115484	1.031060	0.427559	-11.154771	-6.812140	4.351288	13.547318	0.236445	37.310538	7.788056	0.000000	-10.758055	2.693523	-13.425116	16.973330	0.296240	43.635901	15.807508	0.000000	0.302331	0.036724	-4.381837	0.561459	0.048843	-4.655702	0.496699	0.089292	-4.655702	0.345534	0.089292	-3.834107	0.280744	0.074888	-3.560243	0.172752	0.056886	-3.286378	2.159519	0.415433	-24.370463	0.000000	0.000000	27.195069	7.405426	-6.847312	16.331979	-64.424668	-113.959467	100.480963	84.818394	-18.971104	13.115261	68.586484	-47.310814	58.273803	84.634771	27.811079	9.699069	-3.010522
3.389831	-5.632983	5.346389	87.899079	0.115967	1.030910	0.428901	-10.696212	-6.576683	3.600356	13.784320	0.240582	37.319532	8.201170	0.000000	-10.726730	2.539487	-12.900002	16.207523	0.282875	43.193454	15.863282	0.000000	0.292188	-0.051534	-4.406876	0.542623	-0.068540	-4.682306	0.480036	-0.125300	-4.682306	0.333942	-0.125300	-3.856017	0.271326	-0.105088	-3.580587	0.166956	-0.079826	-3.305157	2.087073	-0.582964	-24.509724	0.000000	0.000000	27.243253	7.914878	-8.633507	30.479376	-65.301689	-106.186281	100.947151	84.835757	-12.948603	12.169343	66.905971	-48.088915	56.371868	87.986382	27.292289	8.974689	-2.719038
3.406780	-5.502710	4.950075	88.321854	0.116755	1.030788	0.430824	-10.108562	-6.298320	2.808521	13.983997	0.244067	37.273904	8.686926	0.000000	-10.561902	2.340371	-12.258486	15.445088	0.269568	42.623785	15.726845	0.000000	0.282641	-0.144215	-4.348530	0.524893	-0.191806	-4.620313	0.464352	-0.350645	-4.620313	0.323031	-0.350645	-3.804964	0.262461	-0.294084	-3.533180	0.161501	-0.223389	-3.261397	2.018880	-1.631392	-24.185218	0.000000	0.000000	27.329900	8.042448	-10.533894	44.367425	-65.520100	-97.719059	101.541037	83.821159	-4.657655	11.606704	65.242750	-48.142584	54.382074	91.417887	26.932189	8.435999	-2.135613
3.423729	-5.317944	4.476293	88.744074	0.117771	1.030715	0.433338	-9.408696	-5.956864	2.004069	14.139218	0.246776	37.164781	9.225833	0.000000	-10.271001	2.072498	-11.553044	14.709520	0.256730	41.951122	15.437035	0.000000	0.272468	-0.233059	-4.219621	0.506001	-0.309968	-4.483348	0.447638	-0.566659	-4.483348	0.311404	-0.566659	-3.692169	0.253014	-0.475254	-3.428442	0.155688	-0.361008	-3.164716	1.946214	-2.636408	-23.468268	0.000000	0.000000	27.443197	7.761364	-12.213398	57.582619	-65.075530	-88.452640	102.320863	84.271962	4.050498	11.399079	63.540656	-47.494265	52.283317	94.903488	26.442642	8.300508	-0.973000
3.440678	-5.073984	3.944780	89.173046	0.118965	1.030709	0.436430	-8.627611	-5.545698	1.205685	14.237115	0.248485	36.988257	9.788241	0.000000	-9.872982	1.735257	-10.715429	14.001737	0.244376	41.175546	14.910437	0.000000	0.260056	-0.314948	-4.038559	0.482950	-0.418881	-4.290969	0.427246	-0.765765	-4.290969	0.297218	-0.765765	-3.533739	0.241488	-0.642242	-3.281329	0.148596	-0.487854	-3.028919	1.857553	-3.562755	-22.461253	0.000000	0.000000	27.580123	7.094667	-13.499782	69.855085	-64.021188	-77.329746	102.687930	86.123530	9.605557	11.569204	61.783860	-46.178396	50.095076	98.386163	25.550902	8.818797	0.902858
